<?xml version="1.0" encoding="UTF-8"?>
<!-- Created with Inkscape (http://www.inkscape.org/) -->
<svg width="173.66mm" height="173.66mm" version="1.1" viewBox="0 0 173.66 173.66" xmlns="http://www.w3.org/2000/svg" xmlns:cc="http://creativecommons.org/ns#" xmlns:dc="http://purl.org/dc/elements/1.1/" xmlns:rdf="http://www.w3.org/1999/02/22-rdf-syntax-ns#">
 <g transform="translate(-18.401 -75.558)">
  <g>
   <circle cx="105.23" cy="162.39" r="83.331" fill="#fff" fill-rule="evenodd" stroke="#000" stroke-linecap="round" stroke-width="7"/>
   <text x="-29.379498" y="107.90288" fill="#000000" font-family="sans-serif" font-size="10.583px" stroke-width=".26458" style="line-height:1.25" xml:space="preserve"><tspan x="-29.379498" y="107.90288" stroke-width=".26458"/></text>
   <text x="34.987507" y="200.67635" fill="#000000" font-family="Palanquin" font-size="124.22px" stroke-width="1.331" style="font-variant-caps:normal;font-variant-east-asian:normal;font-variant-ligatures:normal;font-variant-numeric:normal;line-height:1.25" xml:space="preserve"><tspan x="34.987507" y="200.67635" font-family="Palanquin" font-size="124.22px" stroke-width="1.331" style="font-variant-caps:normal;font-variant-east-asian:normal;font-variant-ligatures:normal;font-variant-numeric:normal"/></text>
  </g>
  <g stroke-width=".26458" aria-label="dh">
   <path d="m67.284 143.63q-9.7543 0-13.829 6.9144-3.9511 6.791-3.9511 16.422 0 10.001 3.9511 16.669 3.9511 6.544 13.829 6.544 3.4572 0 7.4083-1.6051 3.9511-1.7286 7.4083-4.8154v-33.584q-3.4572-3.0868-7.4083-4.8154-3.9511-1.7286-7.4083-1.7286zm24.694-33.708v87.048h-5.8032l-2.5929-5.4328q-3.8276 3.0868-8.7665 5.0624-4.8154 1.9756-9.2604 1.9756-13.088 0-19.632-8.89-6.4205-9.0134-6.4205-22.595 0-13.829 6.544-22.719 6.6675-9.0135 19.756-9.0135 3.8276 0 8.2726 1.7286 4.445 1.6051 8.0257 4.3215v-30.374z"/>
   <path d="m121.57 144.99q3.8276-4.0746 9.5073-6.791 5.6797-2.8399 10.866-2.8399 10.372 0 15.187 6.0501 4.9389 5.9267 4.9389 14.94v40.499h-9.7543v-39.141q0-6.0501-2.9633-10.001-2.8399-3.9511-9.1369-4.0746-3.8276 0-9.2604 2.5929t-9.3839 7.1614v43.586h-9.7543v-85.937l9.7543-1.2347z"/>
  </g>
 </g>
 <metadata>
  <rdf:RDF>
   <cc:License rdf:about="http://creativecommons.org/licenses/by-nd/4.0/">
    <cc:permits rdf:resource="http://creativecommons.org/ns#Reproduction"/>
    <cc:permits rdf:resource="http://creativecommons.org/ns#Distribution"/>
    <cc:requires rdf:resource="http://creativecommons.org/ns#Notice"/>
    <cc:requires rdf:resource="http://creativecommons.org/ns#Attribution"/>
   </cc:License>
   <cc:Work rdf:about="">
    <cc:license rdf:resource="http://creativecommons.org/licenses/by-nd/4.0/"/>
    <dc:creator>
     <cc:Agent>
      <dc:title>Daniel P. Herbert</dc:title>
     </cc:Agent>
    </dc:creator>
   </cc:Work>
  </rdf:RDF>
 </metadata>
</svg>
