<svg xmlns="http://www.w3.org/2000/svg" width="680" height="680" viewBox="0 0 180 180"><g transform="translate(-18.401 -75.558)"><circle cx="108.359" cy="165.516" r="83.331" style="fill:#fff;fill-opacity:1;fill-rule:evenodd;stroke:#000;stroke-width:7;stroke-linecap:round;stroke-miterlimit:4;stroke-dasharray:none;stroke-opacity:1"/><path d="M71.276 148.365q-9.26 0-13.088 6.544-3.704 6.544-3.704 15.063 0 9.014 3.58 15.31 3.581 6.298 13.212 6.298 3.334 0 6.915-1.482 3.704-1.605 7.038-4.321v-31.609q-3.334-2.716-7.038-4.198-3.581-1.605-6.915-1.605m25.93-35.313V200.1h-6.792l-3.21-5.557q-3.828 3.334-9.013 5.31-5.063 1.852-9.384 1.852-13.088 0-19.756-9.014-6.667-9.013-6.667-22.595 0-13.706 6.79-22.719 6.915-9.137 20.003-9.137 3.704 0 8.026 1.605 4.321 1.482 8.026 3.951v-29.51zm30.62 33.708q3.828-3.704 9.26-6.05 5.557-2.47 10.372-2.47 10.99 0 15.928 6.42 5.063 6.298 5.063 15.929v39.51h-11.854v-38.4q0-6.05-2.963-9.63-2.84-3.58-8.767-3.704-3.704 0-8.643 2.346-4.815 2.346-8.396 6.173V200.1h-11.853v-85.813l11.853-1.359z" aria-label="dh" style="stroke-width:.264583"/></g></svg>